<?xml version="1.0" encoding="utf-8"?>
<!-- Generator: Adobe Illustrator 16.2.0, SVG Export Plug-In . SVG Version: 6.00 Build 0)  -->
<!DOCTYPE svg PUBLIC "-//W3C//DTD SVG 1.1//EN" "http://www.w3.org/Graphics/SVG/1.1/DTD/svg11.dtd">
<svg version="1.1" id="Слой_1" xmlns="http://www.w3.org/2000/svg" xmlns:xlink="http://www.w3.org/1999/xlink" x="0px" y="0px"
	 width="24px" height="51.5px" viewBox="0 0 24 51.5" enable-background="new 0 0 24 51.5" xml:space="preserve">
<path fill="#BDBDBD" d="M23.029,3.159h-6.17v-0.95c0-1.23-1-2.21-2.27-2.21H9.41c-1.27,0-2.27,0.98-2.27,2.21v0.95H0.97
	C0.451,3.143,0.017,3.55,0,4.068c0,0.014,0,0.027,0,0.04c0,0.531,0.42,0.94,0.97,0.94h1.98l0.46,13.14
	c0.135,3.289,2.87,5.867,6.16,5.811h4.86c3.284,0.041,6.01-2.529,6.16-5.811l0.46-13.14h1.979C23.58,5.049,24,4.64,24,4.108
	c0.006-0.519-0.41-0.943-0.93-0.949C23.057,3.159,23.043,3.159,23.029,3.159z M9.08,2.209c0-0.19,0.13-0.32,0.33-0.32h5.18
	c0.2,0,0.33,0.13,0.33,0.32v0.95H9.08V2.209z M18.65,18.129c-0.098,2.251-1.969,4.015-4.221,3.979H9.57
	c-2.256,0.046-4.133-1.725-4.22-3.979L4.9,5.049h14.2L18.65,18.129z"/>
<path fill="#BDBDBD" d="M11.97,7.999C11.451,7.982,11.017,8.39,11,8.909c0,0.013,0,0.026,0,0.04v9c0,0.53,0.42,0.94,0.97,0.94
	c0.549,0,0.98-0.41,0.98-0.94v-9c0-0.524-0.425-0.95-0.95-0.95C11.99,7.999,11.98,7.999,11.97,7.999z M7.97,7.999H7.94
	C7.39,8.028,6.97,8.438,7,8.979l0.33,9c0.03,0.5,0.45,0.91,0.97,0.91h0.03c0.55-0.031,0.97-0.44,0.94-0.971l-0.32-9
	C8.918,8.401,8.489,7.998,7.97,7.999z M14.33,8.919l-0.33,9c-0.029,0.53,0.391,0.939,0.939,0.971h0.031
	c0.52,0,0.949-0.41,0.979-0.91l0.319-9c0.03-0.541-0.39-0.951-0.939-0.98C14.804,7.987,14.362,8.394,14.33,8.919z"/>
<path fill="#BDBDBD" d="M11.971,7.999C11.451,7.982,11.018,8.39,11,8.909c0,0.013,0,0.026,0,0.04v9c0,0.53,0.42,0.94,0.971,0.94
	c0.549,0,0.979-0.41,0.979-0.94v-9c0-0.524-0.425-0.95-0.95-0.95C11.99,7.999,11.98,7.999,11.971,7.999z M7.97,7.999H7.94
	C7.39,8.028,6.97,8.438,7,8.979l0.33,9c0.03,0.5,0.45,0.91,0.97,0.91h0.03c0.55-0.031,0.97-0.44,0.94-0.971l-0.32-9
	C8.918,8.401,8.489,7.998,7.97,7.999z M14.33,8.919l-0.33,9c-0.029,0.53,0.391,0.939,0.939,0.971h0.031
	c0.52,0,0.949-0.41,0.979-0.91l0.319-9c0.03-0.541-0.39-0.951-0.939-0.98C14.804,7.987,14.362,8.394,14.33,8.919z"/>
<path fill="#FF0303" d="M23.029,30.659h-6.17v-0.95c0-1.229-1-2.21-2.27-2.21H9.41c-1.27,0-2.27,0.98-2.27,2.21v0.95H0.97
	C0.451,30.643,0.017,31.05,0,31.568c0,0.014,0,0.027,0,0.04c0,0.531,0.42,0.94,0.97,0.94h1.98l0.46,13.14
	c0.135,3.289,2.87,5.867,6.16,5.811h4.86c3.284,0.041,6.01-2.529,6.16-5.811l0.46-13.14h1.979c0.551,0,0.971-0.409,0.971-0.94
	c0.006-0.519-0.41-0.943-0.93-0.949C23.057,30.659,23.043,30.659,23.029,30.659z M9.08,29.709c0-0.189,0.13-0.32,0.33-0.32h5.18
	c0.2,0,0.33,0.131,0.33,0.32v0.95H9.08V29.709z M18.65,45.629c-0.098,2.251-1.969,4.015-4.221,3.979H9.57
	c-2.256,0.046-4.133-1.725-4.22-3.979L4.9,32.549h14.2L18.65,45.629z"/>
<path fill="#FF0303" d="M11.971,35.499c-0.52-0.017-0.953,0.391-0.971,0.91c0,0.013,0,0.026,0,0.04v9c0,0.53,0.42,0.94,0.971,0.94
	c0.549,0,0.979-0.41,0.979-0.94v-9c0-0.524-0.425-0.95-0.95-0.95C11.99,35.499,11.98,35.499,11.971,35.499z M7.97,35.499H7.94
	c-0.55,0.029-0.97,0.439-0.94,0.98l0.33,9c0.03,0.5,0.45,0.91,0.97,0.91h0.03c0.55-0.031,0.97-0.44,0.94-0.971l-0.32-9
	C8.918,35.901,8.489,35.498,7.97,35.499z M14.33,36.419l-0.33,9c-0.029,0.53,0.391,0.939,0.939,0.971h0.031
	c0.52,0,0.949-0.41,0.979-0.91l0.319-9c0.03-0.541-0.39-0.951-0.939-0.98C14.804,35.487,14.362,35.894,14.33,36.419z"/>
<path fill="#FF0303" d="M23.029,30.659h-6.17v-0.95c0-1.229-1-2.21-2.27-2.21H9.41c-1.27,0-2.27,0.98-2.27,2.21v0.95H0.97
	C0.451,30.643,0.017,31.05,0,31.568c0,0.014,0,0.027,0,0.04c0,0.531,0.42,0.94,0.97,0.94h1.98l0.46,13.14
	c0.135,3.289,2.87,5.867,6.16,5.811h4.86c3.284,0.041,6.01-2.529,6.16-5.811l0.46-13.14h1.979c0.551,0,0.971-0.409,0.971-0.94
	c0.006-0.519-0.41-0.943-0.93-0.949C23.057,30.659,23.043,30.659,23.029,30.659z M9.08,29.709c0-0.189,0.13-0.32,0.33-0.32h5.18
	c0.2,0,0.33,0.131,0.33,0.32v0.95H9.08V29.709z M18.65,45.629c-0.098,2.251-1.969,4.015-4.221,3.979H9.57
	c-2.256,0.046-4.133-1.725-4.22-3.979L4.9,32.549h14.2L18.65,45.629z"/>
<path fill="#FF0303" d="M11.971,35.499c-0.52-0.017-0.953,0.391-0.971,0.91c0,0.013,0,0.026,0,0.04v9c0,0.53,0.42,0.94,0.971,0.94
	c0.549,0,0.979-0.41,0.979-0.94v-9c0-0.524-0.425-0.95-0.95-0.95C11.99,35.499,11.98,35.499,11.971,35.499z M7.97,35.499H7.94
	c-0.55,0.029-0.97,0.439-0.94,0.98l0.33,9c0.03,0.5,0.45,0.91,0.97,0.91h0.03c0.55-0.031,0.97-0.44,0.94-0.971l-0.32-9
	C8.918,35.901,8.489,35.498,7.97,35.499z M14.33,36.419l-0.33,9c-0.029,0.53,0.391,0.939,0.939,0.971h0.031
	c0.52,0,0.949-0.41,0.979-0.91l0.319-9c0.03-0.541-0.39-0.951-0.939-0.98C14.804,35.487,14.362,35.894,14.33,36.419z"/>
</svg>
